<svg xmlns="http://www.w3.org/2000/svg" width="679" height="30" viewBox="0 0 679 30" fill="none"><rect x="0.0" y="0" width="72.5" height="30" rx="8" fill="#0D7377"/><path transform="translate(12.00,20) scale(0.004972,-0.004972)" d="M476 2048 1009 436H1030L1562 2048H1970L1248 0H790L69 2048ZM2904 -30Q2673 -30 2505.5 66.5Q2338 163 2248.0 340.5Q2158 518 2158 759Q2158 996 2248.5 1175.5Q2339 1355 2502.0 1455.5Q2665 1556 2885 1556Q3027 1556 3153.5 1510.5Q3280 1465 3377.5 1370.0Q3475 1275 3531.0 1128.5Q3587 982 3587 780V669H2517Q2519 541 2566 449Q2615 353 2703.0 302.5Q2791 252 2909 252Q2988 252 3052.0 274.5Q3116 297 3163.0 341.0Q3210 385 3234 450L3572 412Q3540 278 3450.5 178.5Q3361 79 3222.0 24.5Q3083 -30 2904 -30ZM2518 913H3240Q3239 1017 3195.0 1098.5Q3151 1180 3072.5 1227.0Q2994 1274 2890 1274Q2779 1274 2695.0 1220.5Q2611 1167 2564 1081Q2523 1003 2518 913ZM3893 0V1536H4244V1280H4260Q4302 1413 4404.5 1485.5Q4507 1558 4639 1558Q4669 1558 4706.5 1555.5Q4744 1553 4769 1548V1215Q4746 1223 4696.5 1229.5Q4647 1236 4601 1236Q4502 1236 4423.5 1193.5Q4345 1151 4300.0 1076.0Q4255 1001 4255 903V0ZM5010 0V1536H5372V0ZM5192 1754Q5106 1754 5044.0 1811.5Q4982 1869 4982 1950Q4982 2032 5044.0 2089.5Q5106 2147 5192 2147Q5279 2147 5340.5 2089.5Q5402 2032 5402 1950Q5402 1869 5340.5 1811.5Q5279 1754 5192 1754ZM6106 2048V0H5744V2048ZM7148 -30Q6923 -30 6758.0 69.0Q6593 168 6502.5 346.0Q6412 524 6412 762Q6412 1000 6502.5 1179.0Q6593 1358 6758.0 1457.0Q6923 1556 7148 1556Q7373 1556 7538.0 1457.0Q7703 1358 7793.5 1179.0Q7884 1000 7884 762Q7884 524 7793.5 346.0Q7703 168 7538.0 69.0Q7373 -30 7148 -30ZM7150 260Q7272 260 7354.0 327.5Q7436 395 7476.5 509.0Q7517 623 7517 763Q7517 904 7476.5 1018.5Q7436 1133 7354.0 1201.0Q7272 1269 7150 1269Q7025 1269 6942.5 1201.0Q6860 1133 6819.5 1018.5Q6779 904 6779 763Q6779 623 6819.5 509.0Q6860 395 6942.5 327.5Q7025 260 7150 260ZM8858 -608Q8663 -608 8523.0 -555.5Q8383 -503 8298.0 -415.0Q8213 -327 8180 -220L8506 -141Q8528 -186 8570.0 -230.5Q8612 -275 8683.5 -304.5Q8755 -334 8864 -334Q9018 -334 9119.0 -259.5Q9220 -185 9220 -15V276H9202Q9174 220 9120.5 161.0Q9067 102 8979.5 62.0Q8892 22 8760 22Q8583 22 8439.5 105.5Q8296 189 8211.5 355.5Q8127 522 8127 773Q8127 1026 8211.5 1200.5Q8296 1375 8440.0 1465.5Q8584 1556 8761 1556Q8896 1556 8983.5 1510.5Q9071 1465 9123.0 1401.5Q9175 1338 9202 1282H9222V1536H9579V-25Q9579 -222 9485.0 -351.0Q9391 -480 9228.0 -544.0Q9065 -608 8858 -608ZM8861 306Q8976 306 9057.0 362.0Q9138 418 9180.0 523.0Q9222 628 9222 775Q9222 920 9180.5 1029.0Q9139 1138 9058.5 1198.5Q8978 1259 8861 1259Q8740 1259 8659.0 1196.0Q8578 1133 8537.0 1023.5Q8496 914 8496 775Q8496 634 8537.5 528.5Q8579 423 8660.5 364.5Q8742 306 8861 306Z" fill="#ffffff"/><rect x="80.5" y="0" width="123.6" height="30" rx="8" fill="#0E5A5E"/><path transform="translate(92.55,20) scale(0.004972,-0.004972)" d="M1315 1485Q1301 1616 1197.5 1689.0Q1094 1762 929 1762Q813 1762 730.0 1727.0Q647 1692 603.0 1632.0Q559 1572 558 1495Q558 1431 587.5 1384.0Q617 1337 668.0 1304.5Q719 1272 781.0 1250.0Q843 1228 906 1213L1098 1165Q1214 1138 1321.5 1092.0Q1429 1046 1514.5 976.0Q1600 906 1650.0 807.0Q1700 708 1700 575Q1700 395 1608.0 258.5Q1516 122 1342.5 45.5Q1169 -31 923 -31Q684 -31 508.5 43.0Q333 117 234.5 259.0Q136 401 128 605H493Q501 498 559.0 427.0Q617 356 710.5 321.0Q804 286 920 286Q1041 286 1132.5 322.5Q1224 359 1276.0 424.5Q1328 490 1329 578Q1328 658 1282.0 710.5Q1236 763 1153.5 798.5Q1071 834 961 862L728 922Q475 987 328.5 1119.5Q182 1252 182 1472Q182 1653 280.5 1789.0Q379 1925 549.0 2000.5Q719 2076 934 2076Q1152 2076 1316.5 2000.5Q1481 1925 1575.0 1791.5Q1669 1658 1672 1485ZM2239 -576Q2165 -576 2102.5 -564.5Q2040 -553 2003 -538L2087 -256Q2166 -279 2228.0 -278.0Q2290 -277 2337.5 -239.5Q2385 -202 2418 -115L2449 -32L1892 1536H2276L2630 376H2646L3001 1536H3386L2771 -186Q2728 -308 2657.0 -395.5Q2586 -483 2483.5 -529.5Q2381 -576 2239 -576ZM4850 1130 4520 1094Q4506 1144 4471.5 1188.0Q4437 1232 4379.0 1259.0Q4321 1286 4237 1286Q4124 1286 4047.5 1237.0Q3971 1188 3972 1110Q3971 1043 4021.5 1001.0Q4072 959 4189 932L4451 876Q4669 829 4775.5 727.0Q4882 625 4883 460Q4882 315 4798.5 204.5Q4715 94 4567.0 32.0Q4419 -30 4227 -30Q3945 -30 3773.0 88.5Q3601 207 3568 419L3921 453Q3945 349 4023.0 296.0Q4101 243 4226 243Q4355 243 4433.5 296.0Q4512 349 4512 427Q4512 493 4461.5 536.0Q4411 579 4305 602L4043 657Q3822 703 3716.0 812.5Q3610 922 3611 1090Q3610 1232 3688.5 1336.5Q3767 1441 3907.5 1498.5Q4048 1556 4232 1556Q4502 1556 4657.5 1441.0Q4813 1326 4850 1130ZM5949 1536V1256H5646V462Q5646 389 5668.5 350.5Q5691 312 5728.0 298.0Q5765 284 5810 284Q5844 284 5872.5 289.0Q5901 294 5916 298L5977 15Q5948 5 5894.5 -7.0Q5841 -19 5764 -21Q5628 -25 5519.0 20.5Q5410 66 5346.5 162.0Q5283 258 5284 402V1256H5066V1536H5284V1904H5646V1536ZM6932 -30Q6701 -30 6533.5 66.5Q6366 163 6276.0 340.5Q6186 518 6186 759Q6186 996 6276.5 1175.5Q6367 1355 6530.0 1455.5Q6693 1556 6913 1556Q7055 1556 7181.5 1510.5Q7308 1465 7405.5 1370.0Q7503 1275 7559.0 1128.5Q7615 982 7615 780V669H6545Q6547 541 6594 449Q6643 353 6731.0 302.5Q6819 252 6937 252Q7016 252 7080.0 274.5Q7144 297 7191.0 341.0Q7238 385 7262 450L7600 412Q7568 278 7478.5 178.5Q7389 79 7250.0 24.5Q7111 -30 6932 -30ZM6546 913H7268Q7267 1017 7223.0 1098.5Q7179 1180 7100.5 1227.0Q7022 1274 6918 1274Q6807 1274 6723.0 1220.5Q6639 1167 6592 1081Q6551 1003 6546 913ZM7921 0V1536H8267V1275H8285Q8333 1407 8444.0 1481.5Q8555 1556 8709 1556Q8865 1556 8972.5 1480.5Q9080 1405 9124 1275H9140Q9191 1403 9312.5 1479.5Q9434 1556 9601 1556Q9813 1556 9947.0 1422.0Q10081 1288 10081 1031V0H9718V975Q9718 1118 9642.0 1184.5Q9566 1251 9456 1251Q9325 1251 9251.5 1169.5Q9178 1088 9178 958V0H8823V990Q8823 1109 8751.5 1180.0Q8680 1251 8565 1251Q8487 1251 8423.0 1211.5Q8359 1172 8321.0 1100.5Q8283 1029 8283 934V0ZM10739 2048 11272 436H11293L11825 2048H12233L11511 0H11053L10332 2048ZM13167 -30Q12936 -30 12768.5 66.5Q12601 163 12511.0 340.5Q12421 518 12421 759Q12421 996 12511.5 1175.5Q12602 1355 12765.0 1455.5Q12928 1556 13148 1556Q13290 1556 13416.5 1510.5Q13543 1465 13640.5 1370.0Q13738 1275 13794.0 1128.5Q13850 982 13850 780V669H12780Q12782 541 12829 449Q12878 353 12966.0 302.5Q13054 252 13172 252Q13251 252 13315.0 274.5Q13379 297 13426.0 341.0Q13473 385 13497 450L13835 412Q13803 278 13713.5 178.5Q13624 79 13485.0 24.5Q13346 -30 13167 -30ZM12781 913H13503Q13502 1017 13458.0 1098.5Q13414 1180 13335.5 1227.0Q13257 1274 13153 1274Q13042 1274 12958.0 1220.5Q12874 1167 12827 1081Q12786 1003 12781 913ZM14156 0V1536H14507V1280H14523Q14565 1413 14667.5 1485.5Q14770 1558 14902 1558Q14932 1558 14969.5 1555.5Q15007 1553 15032 1548V1215Q15009 1223 14959.5 1229.5Q14910 1236 14864 1236Q14765 1236 14686.5 1193.5Q14608 1151 14563.0 1076.0Q14518 1001 14518 903V0ZM15273 0V1536H15635V0ZM15455 1754Q15369 1754 15307.0 1811.5Q15245 1869 15245 1950Q15245 2032 15307.0 2089.5Q15369 2147 15455 2147Q15542 2147 15603.5 2089.5Q15665 2032 15665 1950Q15665 1869 15603.5 1811.5Q15542 1754 15455 1754ZM16369 2048V0H16007V2048ZM17411 -30Q17186 -30 17021.0 69.0Q16856 168 16765.5 346.0Q16675 524 16675 762Q16675 1000 16765.5 1179.0Q16856 1358 17021.0 1457.0Q17186 1556 17411 1556Q17636 1556 17801.0 1457.0Q17966 1358 18056.5 1179.0Q18147 1000 18147 762Q18147 524 18056.5 346.0Q17966 168 17801.0 69.0Q17636 -30 17411 -30ZM17413 260Q17535 260 17617.0 327.5Q17699 395 17739.5 509.0Q17780 623 17780 763Q17780 904 17739.5 1018.5Q17699 1133 17617.0 1201.0Q17535 1269 17413 1269Q17288 1269 17205.5 1201.0Q17123 1133 17082.5 1018.5Q17042 904 17042 763Q17042 623 17082.5 509.0Q17123 395 17205.5 327.5Q17288 260 17413 260ZM19121 -608Q18926 -608 18786.0 -555.5Q18646 -503 18561.0 -415.0Q18476 -327 18443 -220L18769 -141Q18791 -186 18833.0 -230.5Q18875 -275 18946.5 -304.5Q19018 -334 19127 -334Q19281 -334 19382.0 -259.5Q19483 -185 19483 -15V276H19465Q19437 220 19383.5 161.0Q19330 102 19242.5 62.0Q19155 22 19023 22Q18846 22 18702.5 105.5Q18559 189 18474.5 355.5Q18390 522 18390 773Q18390 1026 18474.5 1200.5Q18559 1375 18703.0 1465.5Q18847 1556 19024 1556Q19159 1556 19246.5 1510.5Q19334 1465 19386.0 1401.5Q19438 1338 19465 1282H19485V1536H19842V-25Q19842 -222 19748.0 -351.0Q19654 -480 19491.0 -544.0Q19328 -608 19121 -608ZM19124 306Q19239 306 19320.0 362.0Q19401 418 19443.0 523.0Q19485 628 19485 775Q19485 920 19443.5 1029.0Q19402 1138 19321.5 1198.5Q19241 1259 19124 1259Q19003 1259 18922.0 1196.0Q18841 1133 18800.0 1023.5Q18759 914 18759 775Q18759 634 18800.5 528.5Q18842 423 18923.5 364.5Q19005 306 19124 306Z" fill="#ffffff"/><rect x="212.1" y="0" width="62.6" height="30" rx="8" fill="#4B6CB7"/><path transform="translate(224.12,20) scale(0.004972,-0.004972)" d="M476 2048 1009 436H1030L1562 2048H1970L1248 0H790L69 2048ZM2240 0V2048H2611V1181H3560V2048H3932V0H3560V870H2611V0ZM5029 0H4335V2048H5043Q5348 2048 5567.5 1925.5Q5787 1803 5905.0 1574.0Q6023 1345 6023 1026Q6023 706 5904.5 476.0Q5786 246 5563.5 123.0Q5341 0 5029 0ZM4706 321H5011Q5225 321 5368.0 399.5Q5511 478 5583.0 634.5Q5655 791 5655 1026Q5655 1261 5583.0 1416.5Q5511 1572 5370.5 1649.5Q5230 1727 5022 1727H4706ZM6375 0V2048H6746V311H7648V0Z" fill="#ffffff"/><rect x="282.7" y="0" width="73.1" height="30" rx="8" fill="#283272"/><path transform="translate(294.73,20) scale(0.004972,-0.004972)" d="M202 0V2048H970Q1206 2048 1366.5 1966.0Q1527 1884 1609.5 1736.5Q1692 1589 1692 1393Q1692 1196 1608.5 1051.5Q1525 907 1363 829Q1344 820 1324 811L1767 0H1353L950 750H573V0ZM573 1058H915Q1053 1058 1141.0 1096.5Q1229 1135 1271.5 1209.5Q1314 1284 1314 1393Q1314 1502 1271.0 1579.5Q1228 1657 1140.0 1697.5Q1052 1738 913 1738H573ZM2405 2048V0H2034V2048ZM3921 1485Q3907 1616 3803.5 1689.0Q3700 1762 3535 1762Q3419 1762 3336.0 1727.0Q3253 1692 3209.0 1632.0Q3165 1572 3164 1495Q3164 1431 3193.5 1384.0Q3223 1337 3274.0 1304.5Q3325 1272 3387.0 1250.0Q3449 1228 3512 1213L3704 1165Q3820 1138 3927.5 1092.0Q4035 1046 4120.5 976.0Q4206 906 4256.0 807.0Q4306 708 4306 575Q4306 395 4214.0 258.5Q4122 122 3948.5 45.5Q3775 -31 3529 -31Q3290 -31 3114.5 43.0Q2939 117 2840.5 259.0Q2742 401 2734 605H3099Q3107 498 3165.0 427.0Q3223 356 3316.5 321.0Q3410 286 3526 286Q3647 286 3738.5 322.5Q3830 359 3882.0 424.5Q3934 490 3935 578Q3934 658 3888.0 710.5Q3842 763 3759.5 798.5Q3677 834 3567 862L3334 922Q3081 987 2934.5 1119.5Q2788 1252 2788 1472Q2788 1653 2886.5 1789.0Q2985 1925 3155.0 2000.5Q3325 2076 3540 2076Q3758 2076 3922.5 2000.5Q4087 1925 4181.0 1791.5Q4275 1658 4278 1485ZM6389 1357H6015Q5999 1449 5956.0 1520.5Q5913 1592 5849.0 1642.0Q5785 1692 5703.5 1717.5Q5622 1743 5528 1743Q5361 1743 5232.0 1659.5Q5103 1576 5030.0 1415.5Q4957 1255 4957 1024Q4957 789 5030.5 628.5Q5104 468 5232.5 386.5Q5361 305 5527 305Q5619 305 5699.5 329.5Q5780 354 5844.5 402.0Q5909 450 5953.5 520.0Q5998 590 6015 680L6389 678Q6368 532 6298.5 404.0Q6229 276 6117.0 178.5Q6005 81 5855.0 26.5Q5705 -28 5522 -28Q5252 -28 5040.0 97.0Q4828 222 4706.0 458.0Q4584 694 4584 1024Q4584 1355 4707.0 1590.5Q4830 1826 5042.0 1951.0Q5254 2076 5522 2076Q5693 2076 5840.0 2028.0Q5987 1980 6102.0 1887.5Q6217 1795 6291.5 1661.5Q6366 1528 6389 1357ZM7645 1002V704H6723V1002ZM8316 2048 8849 436H8870L9402 2048H9810L9088 0H8630L7909 2048Z" fill="#ffffff"/><rect x="363.8" y="0" width="111.7" height="30" rx="8" fill="#E81F26"/><path transform="translate(375.84,20) scale(0.004972,-0.004972)" d="M512 2048 963 1298H979L1432 2048H1855L1224 1024L1865 0H1435L979 745H963L507 0H79L726 1024L87 2048ZM2130 0V1536H2492V0ZM2312 1754Q2226 1754 2164.0 1811.5Q2102 1869 2102 1950Q2102 2032 2164.0 2089.5Q2226 2147 2312 2147Q2399 2147 2460.5 2089.5Q2522 2032 2522 1950Q2522 1869 2460.5 1811.5Q2399 1754 2312 1754ZM3226 2048V0H2864V2048ZM3598 0V1536H3960V0ZM3780 1754Q3694 1754 3632.0 1811.5Q3570 1869 3570 1950Q3570 2032 3632.0 2089.5Q3694 2147 3780 2147Q3867 2147 3928.5 2089.5Q3990 2032 3990 1950Q3990 1869 3928.5 1811.5Q3867 1754 3780 1754ZM4694 900V0H4332V1536H4678V1275H4696Q4749 1404 4865.5 1480.0Q4982 1556 5154 1556Q5313 1556 5431.5 1488.0Q5550 1420 5615.5 1291.0Q5681 1162 5680 978V0H5318V922Q5318 1076 5238.5 1163.0Q5159 1250 5019 1250Q4924 1250 4850.5 1208.5Q4777 1167 4735.5 1089.0Q4694 1011 4694 900ZM6345 1536 6655 969 6970 1536H7353L6890 768L7361 0H6980L6655 553L6333 0H5949L6417 768L5961 1536ZM8622 2048 9155 436H9176L9708 2048H10116L9394 0H8936L8215 2048ZM10370 0V1536H10732V0ZM10552 1754Q10466 1754 10404.0 1811.5Q10342 1869 10342 1950Q10342 2032 10404.0 2089.5Q10466 2147 10552 2147Q10639 2147 10700.5 2089.5Q10762 2032 10762 1950Q10762 1869 10700.5 1811.5Q10639 1754 10552 1754ZM12476 1536 11929 0H11529L10982 1536H11368L11721 395H11737L12091 1536ZM13168 -31Q13022 -31 12905.5 21.5Q12789 74 12721.5 177.0Q12654 280 12654 431Q12654 561 12702.0 646.0Q12750 731 12833.0 782.0Q12916 833 13020.5 859.5Q13125 886 13237 898Q13372 912 13456.0 923.5Q13540 935 13578.5 959.5Q13617 984 13617 1036V1042Q13617 1155 13550.0 1217.0Q13483 1279 13357 1279Q13224 1279 13146.5 1221.0Q13069 1163 13042 1084L12704 1132Q12744 1272 12836.0 1366.5Q12928 1461 13061.0 1508.5Q13194 1556 13355 1556Q13466 1556 13576.0 1530.0Q13686 1504 13777.0 1444.5Q13868 1385 13923.5 1283.0Q13979 1181 13979 1028V0H13631V211H13619Q13586 147 13526.5 91.5Q13467 36 13377.5 2.5Q13288 -31 13168 -31ZM13262 235Q13371 235 13451.0 278.5Q13531 322 13574.5 394.0Q13618 466 13618 551V732Q13601 718 13560.5 706.0Q13520 694 13470.0 685.0Q13420 676 13371.0 669.0Q13322 662 13286 657Q13205 646 13141.0 621.0Q13077 596 13040.0 551.5Q13003 507 13003 437Q13003 337 13076.0 286.0Q13149 235 13262 235ZM14914 -27Q14733 -27 14590.0 66.0Q14447 159 14364.0 336.0Q14281 513 14281 766Q14281 1022 14365.5 1198.5Q14450 1375 14594.0 1465.5Q14738 1556 14915 1556Q15050 1556 15137.0 1510.5Q15224 1465 15275.0 1401.5Q15326 1338 15354 1282H15369V2048H15732V0H15376V242H15354Q15326 186 15273.0 123.5Q15220 61 15133.0 17.0Q15046 -27 14914 -27ZM15015 270Q15130 270 15211.0 332.5Q15292 395 15334.0 507.0Q15376 619 15376 768Q15376 917 15334.5 1027.0Q15293 1137 15212.5 1198.0Q15132 1259 15015 1259Q14894 1259 14813.0 1196.0Q14732 1133 14691.0 1022.0Q14650 911 14650 768Q14650 624 14691.5 511.5Q14733 399 14814.5 334.5Q14896 270 15015 270ZM16789 -30Q16564 -30 16399.0 69.0Q16234 168 16143.5 346.0Q16053 524 16053 762Q16053 1000 16143.5 1179.0Q16234 1358 16399.0 1457.0Q16564 1556 16789 1556Q17014 1556 17179.0 1457.0Q17344 1358 17434.5 1179.0Q17525 1000 17525 762Q17525 524 17434.5 346.0Q17344 168 17179.0 69.0Q17014 -30 16789 -30ZM16791 260Q16913 260 16995.0 327.5Q17077 395 17117.5 509.0Q17158 623 17158 763Q17158 904 17117.5 1018.5Q17077 1133 16995.0 1201.0Q16913 1269 16791 1269Q16666 1269 16583.5 1201.0Q16501 1133 16460.5 1018.5Q16420 904 16420 763Q16420 623 16460.5 509.0Q16501 395 16583.5 327.5Q16666 260 16791 260Z" fill="#ffffff"/><rect x="483.6" y="0" width="77.7" height="30" rx="8" fill="#00878F"/><path transform="translate(495.57,20) scale(0.004972,-0.004972)" d="M465 0H69L790 2048H1248L1970 0H1574L1404 505H634ZM1304 803 1027 1628H1011L734 803ZM2224 0V1536H2575V1280H2591Q2633 1413 2735.5 1485.5Q2838 1558 2970 1558Q3000 1558 3037.5 1555.5Q3075 1553 3100 1548V1215Q3077 1223 3027.5 1229.5Q2978 1236 2932 1236Q2833 1236 2754.5 1193.5Q2676 1151 2631.0 1076.0Q2586 1001 2586 903V0ZM3911 -27Q3730 -27 3587.0 66.0Q3444 159 3361.0 336.0Q3278 513 3278 766Q3278 1022 3362.5 1198.5Q3447 1375 3591.0 1465.5Q3735 1556 3912 1556Q4047 1556 4134.0 1510.5Q4221 1465 4272.0 1401.5Q4323 1338 4351 1282H4366V2048H4729V0H4373V242H4351Q4323 186 4270.0 123.5Q4217 61 4130.0 17.0Q4043 -27 3911 -27ZM4012 270Q4127 270 4208.0 332.5Q4289 395 4331.0 507.0Q4373 619 4373 768Q4373 917 4331.5 1027.0Q4290 1137 4209.5 1198.0Q4129 1259 4012 1259Q3891 1259 3810.0 1196.0Q3729 1133 3688.0 1022.0Q3647 911 3647 768Q3647 624 3688.5 511.5Q3730 399 3811.5 334.5Q3893 270 4012 270ZM6095 646V1536H6457V0H6106V273H6090Q6038 144 5919.5 62.0Q5801 -20 5628 -20Q5477 -20 5361.5 47.5Q5246 115 5181.0 244.5Q5116 374 5116 558V1536H5478V614Q5478 468 5558.0 382.0Q5638 296 5768 296Q5848 296 5923.0 335.0Q5998 374 6046.5 451.5Q6095 529 6095 646ZM6829 0V1536H7191V0ZM7011 1754Q6925 1754 6863.0 1811.5Q6801 1869 6801 1950Q6801 2032 6863.0 2089.5Q6925 2147 7011 2147Q7098 2147 7159.5 2089.5Q7221 2032 7221 1950Q7221 1869 7159.5 1811.5Q7098 1754 7011 1754ZM7925 900V0H7563V1536H7909V1275H7927Q7980 1404 8096.5 1480.0Q8213 1556 8385 1556Q8544 1556 8662.5 1488.0Q8781 1420 8846.5 1291.0Q8912 1162 8911 978V0H8549V922Q8549 1076 8469.5 1163.0Q8390 1250 8250 1250Q8155 1250 8081.5 1208.5Q8008 1167 7966.5 1089.0Q7925 1011 7925 900ZM9950 -30Q9725 -30 9560.0 69.0Q9395 168 9304.5 346.0Q9214 524 9214 762Q9214 1000 9304.5 1179.0Q9395 1358 9560.0 1457.0Q9725 1556 9950 1556Q10175 1556 10340.0 1457.0Q10505 1358 10595.5 1179.0Q10686 1000 10686 762Q10686 524 10595.5 346.0Q10505 168 10340.0 69.0Q10175 -30 9950 -30ZM9952 260Q10074 260 10156.0 327.5Q10238 395 10278.5 509.0Q10319 623 10319 763Q10319 904 10278.5 1018.5Q10238 1133 10156.0 1201.0Q10074 1269 9952 1269Q9827 1269 9744.5 1201.0Q9662 1133 9621.5 1018.5Q9581 904 9581 763Q9581 623 9621.5 509.0Q9662 395 9744.5 327.5Q9827 260 9952 260Z" fill="#ffffff"/><rect x="569.3" y="0" width="110.0" height="30" rx="8" fill="#A22846"/><path transform="translate(581.29,20) scale(0.004972,-0.004972)" d="M202 0V2048H970Q1206 2048 1366.5 1966.0Q1527 1884 1609.5 1736.5Q1692 1589 1692 1393Q1692 1196 1608.5 1051.5Q1525 907 1363 829Q1344 820 1324 811L1767 0H1353L950 750H573V0ZM573 1058H915Q1053 1058 1141.0 1096.5Q1229 1135 1271.5 1209.5Q1314 1284 1314 1393Q1314 1502 1271.0 1579.5Q1228 1657 1140.0 1697.5Q1052 1738 913 1738H573ZM2460 -31Q2314 -31 2197.5 21.5Q2081 74 2013.5 177.0Q1946 280 1946 431Q1946 561 1994.0 646.0Q2042 731 2125.0 782.0Q2208 833 2312.5 859.5Q2417 886 2529 898Q2664 912 2748.0 923.5Q2832 935 2870.5 959.5Q2909 984 2909 1036V1042Q2909 1155 2842.0 1217.0Q2775 1279 2649 1279Q2516 1279 2438.5 1221.0Q2361 1163 2334 1084L1996 1132Q2036 1272 2128.0 1366.5Q2220 1461 2353.0 1508.5Q2486 1556 2647 1556Q2758 1556 2868.0 1530.0Q2978 1504 3069.0 1444.5Q3160 1385 3215.5 1283.0Q3271 1181 3271 1028V0H2923V211H2911Q2878 147 2818.5 91.5Q2759 36 2669.5 2.5Q2580 -31 2460 -31ZM2554 235Q2663 235 2743.0 278.5Q2823 322 2866.5 394.0Q2910 466 2910 551V732Q2893 718 2852.5 706.0Q2812 694 2762.0 685.0Q2712 676 2663.0 669.0Q2614 662 2578 657Q2497 646 2433.0 621.0Q2369 596 2332.0 551.5Q2295 507 2295 437Q2295 337 2368.0 286.0Q2441 235 2554 235ZM4850 1130 4520 1094Q4506 1144 4471.5 1188.0Q4437 1232 4379.0 1259.0Q4321 1286 4237 1286Q4124 1286 4047.5 1237.0Q3971 1188 3972 1110Q3971 1043 4021.5 1001.0Q4072 959 4189 932L4451 876Q4669 829 4775.5 727.0Q4882 625 4883 460Q4882 315 4798.5 204.5Q4715 94 4567.0 32.0Q4419 -30 4227 -30Q3945 -30 3773.0 88.5Q3601 207 3568 419L3921 453Q3945 349 4023.0 296.0Q4101 243 4226 243Q4355 243 4433.5 296.0Q4512 349 4512 427Q4512 493 4461.5 536.0Q4411 579 4305 602L4043 657Q3822 703 3716.0 812.5Q3610 922 3611 1090Q3610 1232 3688.5 1336.5Q3767 1441 3907.5 1498.5Q4048 1556 4232 1556Q4502 1556 4657.5 1441.0Q4813 1326 4850 1130ZM5182 -576V1536H5538V1282H5559Q5587 1338 5638.0 1401.5Q5689 1465 5776.0 1510.5Q5863 1556 5998 1556Q6176 1556 6319.5 1465.5Q6463 1375 6547.5 1198.5Q6632 1022 6632 766Q6632 513 6549.0 336.0Q6466 159 6323.0 66.0Q6180 -27 5999 -27Q5867 -27 5780.0 17.0Q5693 61 5640.5 123.5Q5588 186 5559 242H5544V-576ZM5537 768Q5537 619 5579.5 507.0Q5622 395 5702.5 332.5Q5783 270 5898 270Q6018 270 6099.0 334.5Q6180 399 6221.5 511.5Q6263 624 6263 768Q6263 911 6222.0 1022.0Q6181 1133 6100.0 1196.0Q6019 1259 5898 1259Q5782 1259 5701.0 1198.0Q5620 1137 5578.5 1027.0Q5537 917 5537 768ZM6957 0V2048H7319V1282H7334Q7362 1338 7413.0 1401.5Q7464 1465 7551.0 1510.5Q7638 1556 7773 1556Q7951 1556 8094.5 1465.5Q8238 1375 8322.5 1198.5Q8407 1022 8407 766Q8407 513 8324.0 336.0Q8241 159 8098.0 66.0Q7955 -27 7774 -27Q7642 -27 7555.0 17.0Q7468 61 7415.5 123.5Q7363 186 7334 242H7313V0ZM7312 768Q7312 619 7354.5 507.0Q7397 395 7477.5 332.5Q7558 270 7673 270Q7793 270 7874.0 334.5Q7955 399 7996.5 511.5Q8038 624 8038 768Q8038 911 7997.0 1022.0Q7956 1133 7875.0 1196.0Q7794 1259 7673 1259Q7557 1259 7476.0 1198.0Q7395 1137 7353.5 1027.0Q7312 917 7312 768ZM9396 -30Q9165 -30 8997.5 66.5Q8830 163 8740.0 340.5Q8650 518 8650 759Q8650 996 8740.5 1175.5Q8831 1355 8994.0 1455.5Q9157 1556 9377 1556Q9519 1556 9645.5 1510.5Q9772 1465 9869.5 1370.0Q9967 1275 10023.0 1128.5Q10079 982 10079 780V669H9009Q9011 541 9058 449Q9107 353 9195.0 302.5Q9283 252 9401 252Q9480 252 9544.0 274.5Q9608 297 9655.0 341.0Q9702 385 9726 450L10064 412Q10032 278 9942.5 178.5Q9853 79 9714.0 24.5Q9575 -30 9396 -30ZM9010 913H9732Q9731 1017 9687.0 1098.5Q9643 1180 9564.5 1227.0Q9486 1274 9382 1274Q9271 1274 9187.0 1220.5Q9103 1167 9056 1081Q9015 1003 9010 913ZM10385 0V1536H10736V1280H10752Q10794 1413 10896.5 1485.5Q10999 1558 11131 1558Q11161 1558 11198.5 1555.5Q11236 1553 11261 1548V1215Q11238 1223 11188.5 1229.5Q11139 1236 11093 1236Q10994 1236 10915.5 1193.5Q10837 1151 10792.0 1076.0Q10747 1001 10747 903V0ZM11502 0V1536H11853V1280H11869Q11911 1413 12013.5 1485.5Q12116 1558 12248 1558Q12278 1558 12315.5 1555.5Q12353 1553 12378 1548V1215Q12355 1223 12305.5 1229.5Q12256 1236 12210 1236Q12111 1236 12032.5 1193.5Q11954 1151 11909.0 1076.0Q11864 1001 11864 903V0ZM12844 -576Q12770 -576 12707.5 -564.5Q12645 -553 12608 -538L12692 -256Q12771 -279 12833.0 -278.0Q12895 -277 12942.5 -239.5Q12990 -202 13023 -115L13054 -32L12497 1536H12881L13235 376H13251L13606 1536H13991L13376 -186Q13333 -308 13262.0 -395.5Q13191 -483 13088.5 -529.5Q12986 -576 12844 -576ZM14956 0V2048H15724Q15960 2048 16120.5 1960.0Q16281 1872 16363.5 1718.5Q16446 1565 16446 1370Q16446 1173 16363.0 1020.0Q16280 867 16118.0 779.5Q15956 692 15719 692H15327V0ZM15327 997H15669Q15807 997 15895.0 1045.0Q15983 1093 16025.5 1177.0Q16068 1261 16068 1370Q16068 1479 16025.5 1562.0Q15983 1645 15894.5 1691.5Q15806 1738 15667 1738H15327ZM16752 0V1536H17114V0ZM16934 1754Q16848 1754 16786.0 1811.5Q16724 1869 16724 1950Q16724 2032 16786.0 2089.5Q16848 2147 16934 2147Q17021 2147 17082.5 2089.5Q17144 2032 17144 1950Q17144 1869 17082.5 1811.5Q17021 1754 16934 1754Z" fill="#ffffff"/></svg>